<svg width="120" height="51" viewBox="0 0 120 51" fill="none" xmlns="http://www.w3.org/2000/svg">
<g clip-path="url(#clip0_61_3)">
<path d="M9.98114 50.5177H1.4251C0.49797 50.5177 0 50.0168 0 49.0895V11.0759C0 3.85834 3.77914 0 11.1926 0C14.2583 0 17.1827 1.50087 19.3194 3.50082C21.4598 1.50087 24.3824 0 27.4481 0C34.8634 0 38.5701 3.85834 38.5701 11.0759V49.0895C38.5701 50.0187 38.0721 50.5177 37.145 50.5177H28.5889C27.6618 50.5177 27.1638 50.0168 27.1638 49.0895V9.71844C27.1638 8.86002 26.9502 8.21757 26.0955 8.21757C25.2408 8.21757 25.0253 8.86002 25.0253 9.71844V49.0895C25.0253 50.0187 24.5273 50.5177 23.6002 50.5177H15.0441C14.117 50.5177 13.619 50.0168 13.619 49.0895V9.71844C13.619 8.86002 13.3329 8.21757 12.5489 8.21757C11.6942 8.21757 11.408 8.86002 11.408 9.71844V49.0895C11.408 50.0187 10.9101 50.5177 9.98295 50.5177H9.98114Z" fill="#EBEAEF"/>
<path d="M40.7141 49.0895V2.14332C40.7141 1.21413 41.2138 0.715046 42.1392 0.715046H50.6952C51.6223 0.715046 52.1203 1.21594 52.1203 2.14332V49.0895C52.1203 50.0187 51.6223 50.5177 50.6952 50.5177H42.1392C41.212 50.5177 40.7141 50.0168 40.7141 49.0895Z" fill="#EBEAEF"/>
<path d="M64.1422 32.589H55.5862C54.659 32.589 54.1611 32.0881 54.1611 31.1607V11.0759C54.1611 3.86015 57.9402 0 65.3536 0C68.4193 0 71.3438 1.50087 73.4805 3.50082C75.6191 1.50087 78.5435 0 81.6074 0C89.0226 0 92.7293 3.85834 92.7293 11.0759V31.1607C92.7293 32.0899 92.2314 32.589 91.3042 32.589H82.7482C81.8211 32.589 81.3231 32.0881 81.3231 31.1607V9.71844C81.3231 8.86002 81.1094 8.21757 80.2547 8.21757C79.4 8.21757 79.1845 8.86002 79.1845 9.71844V31.1607C79.1845 32.0899 78.6866 32.589 77.7594 32.589H69.2034C68.2763 32.589 67.7783 32.0881 67.7783 31.1607V9.71844C67.7783 8.86002 67.4922 8.21757 66.7081 8.21757C65.8534 8.21757 65.5673 8.86002 65.5673 9.71844V31.1607C65.5673 32.0899 65.0693 32.589 64.1422 32.589Z" fill="#EBEAEF"/>
<path d="M94.9765 41.9426L95.0472 9.28832C95.0472 3.71497 98.0422 0.71323 103.603 0.71323H118.575C119.502 0.71323 120 1.21412 120 2.14151V7.42993C120 8.35913 119.502 8.85821 118.575 8.85821H107.453C106.669 8.85821 106.383 9.50066 106.383 10.3591V19.0049C106.383 19.8634 106.669 20.5766 107.524 20.5766H118.075C119.002 20.5766 119.502 21.0775 119.502 22.0049V27.2915C119.502 28.2207 119.002 28.7216 118.075 28.7216H107.453C106.669 28.7216 106.383 29.364 106.383 30.2224V40.7975C106.383 41.6559 106.669 42.3691 107.524 42.3691H118.575C119.502 42.3691 120 42.87 120 43.7974V49.0858C120 50.015 119.502 50.5141 118.575 50.5141H103.531C97.9698 50.5141 94.9747 47.5124 94.9747 41.939L94.9765 41.9426Z" fill="#EBEAEF"/>
<path d="M82.7591 29.3277H91.3151C92.2422 29.3277 92.7402 29.8286 92.7402 30.756V39.4944C92.7402 46.7102 88.9611 50.5704 81.5476 50.5704C78.4819 50.5704 75.5575 49.0695 73.4208 47.0695C71.2822 49.0695 68.3578 50.5704 65.2939 50.5704C57.8786 50.5704 54.1719 46.712 54.1719 39.4944V30.756C54.1719 29.8268 54.6699 29.3277 55.597 29.3277H64.1531C65.0802 29.3277 65.5782 29.8286 65.5782 30.756V40.8519C65.5782 41.7103 65.7918 42.3528 66.6465 42.3528C67.5012 42.3528 67.7167 41.7103 67.7167 40.8519V30.756C67.7167 29.8268 68.2147 29.3277 69.1418 29.3277H77.6979C78.625 29.3277 79.123 29.8286 79.123 30.756V40.8519C79.123 41.7103 79.4091 42.3528 80.1932 42.3528C81.0478 42.3528 81.334 41.7103 81.334 40.8519V30.756C81.334 29.8268 81.8319 29.3277 82.7591 29.3277Z" fill="url(#paint0_linear_61_3)"/>
</g>
<defs>
<linearGradient id="paint0_linear_61_3" x1="73.4552" y1="49.7065" x2="73.4552" y2="29.2987" gradientUnits="userSpaceOnUse">
<stop stop-color="white"/>
<stop offset="1" stop-color="white" stop-opacity="0"/>
</linearGradient>
<clipPath id="clip0_61_3">
<rect width="120" height="50.5686" fill="white"/>
</clipPath>
</defs>
</svg>
